<svg width="642" height="207" viewBox="0 0 642 207" fill="none" xmlns="http://www.w3.org/2000/svg">
<path d="M11.7016 38.5987H80.5016C91.7389 38.5987 99.9738 41.1786 105.206 46.3384C110.439 51.3836 113.013 59.1233 112.928 69.5577C112.871 76.4374 111.334 82.0559 108.317 86.4131C105.301 90.6556 101.607 93.6368 97.236 95.3568C106.503 97.8794 112.759 104.071 116.004 113.932C117.121 117.487 117.661 121.615 117.622 126.316C117.53 137.553 114.825 145.808 109.507 151.083C104.189 156.357 95.9113 158.995 84.674 158.995H10.714L11.7016 38.5987ZM86.7044 121.156C86.7608 114.276 83.349 110.836 76.469 110.836H42.069L41.8715 134.915H76.2715C83.1515 134.915 86.6197 131.476 86.6762 124.596L86.7044 121.156ZM81.9394 72.9975C81.9959 66.1178 78.5841 62.6779 71.7041 62.6779H42.4641L42.2666 86.7571H71.5066C78.3866 86.7571 81.8548 83.3172 81.9112 76.4374L81.9394 72.9975ZM355.594 38.5987C368.551 38.5987 378.328 41.9812 384.923 48.7464C391.634 55.3968 394.936 65.2005 394.83 78.1574L394.491 119.436C394.385 132.393 390.921 142.254 384.1 149.019C377.395 155.669 367.564 158.995 354.606 158.995H287.526L288.514 38.5987H355.594ZM363.87 78.1574C363.954 67.8377 358.837 62.6779 348.517 62.6779H319.277L318.684 134.915H347.924C358.244 134.915 363.446 129.756 363.531 119.436L363.87 78.1574ZM479.387 38.5987C492.344 38.5987 502.121 41.9812 508.716 48.7464C515.427 55.3968 518.729 65.2005 518.623 78.1574L518.284 119.436C518.178 132.393 514.714 142.254 507.893 149.019C501.188 155.669 491.357 158.995 478.399 158.995H411.319L412.307 38.5987H479.387ZM487.663 78.1574C487.747 67.8377 482.63 62.6779 472.31 62.6779H443.07L442.477 134.915H471.717C482.037 134.915 487.239 129.756 487.324 119.436L487.663 78.1574ZM518.981 38.5987H551.661L579.561 97.0767L608.421 38.5987H641.101L594.794 127.176L594.533 158.995H563.573L563.834 127.176L518.981 38.5987Z" fill="black"/>
<path d="M172.378 162.57C166.316 170.449 153.95 171.102 144.758 164.029C135.567 156.956 133.03 144.835 139.093 136.957C150.07 122.692 147.63 125.862 164.273 138.668C180.916 151.475 183.356 148.305 172.378 162.57Z" fill="black"/>
<rect x="153.912" y="119.339" width="40" height="7" rx="2" transform="rotate(37.5784 153.912 119.339)" fill="black"/>
<path d="M176.975 25.417L153.942 116.839L155.131 117.754L166.63 85.5937L173.338 76.876L184.898 39.7161L176.975 25.417Z" fill="#4BD032"/>
<path d="M270.492 97.3779L188.021 143.062L186.832 142.147L214.974 122.793L221.682 114.076L254.64 93.3816L270.492 97.3779Z" fill="#4BD032"/>
<path d="M205.768 115.079L178.907 136.049L178.114 135.439L202.598 112.64L209.734 101.727L242.847 68.534L256.383 65.7011L259.675 66.3419L258.729 70.0305L255.892 81.0963L218.848 108.74L205.768 115.079Z" fill="#42E024"/>
<path d="M176.049 92.2103L162.66 123.547L163.453 124.157L179.219 94.6496L187.939 84.9567L211.542 44.4455L210.813 30.6354L209.35 27.6171L206.027 29.4761L196.057 35.0533L178.825 77.9435L176.049 92.2103Z" fill="#42E024"/>
<path d="M189.735 101.48L170.585 129.646L171.378 130.255L193.301 104.224L206.198 96.4834L238.245 60.5769L238.675 41.9808L221.419 46.3677L194.31 87.3357L189.735 101.48Z" fill="#37F513"/>
</svg>
